Coordinates
version=1
nRows=16
nColumns=40
inDegrees=yes

Units are S.I. units (second, meters, Newtons, ...)
Angles are in degrees.

endheader
time	pelvis_tilt	pelvis_list	pelvis_rotation	pelvis_tx	pelvis_ty	pelvis_tz	hip_flexion_r	hip_adduction_r	hip_rotation_r	knee_angle_r	knee_angle_r_beta	ankle_angle_r	subtalar_angle_r	mtp_angle_r	hip_flexion_l	hip_adduction_l	hip_rotation_l	knee_angle_l	knee_angle_l_beta	ankle_angle_l	subtalar_angle_l	mtp_angle_l	lumbar_extension	lumbar_bending	lumbar_rotation	arm_flex_r	arm_add_r	arm_rot_r	elbow_flex_r	pro_sup_r	wrist_flex_r	wrist_dev_r	arm_flex_l	arm_add_l	arm_rot_l	elbow_flex_l	pro_sup_l	wrist_flex_l	wrist_dev_l
     28.09664286	     -3.78693971	     -2.54478055	     -2.94062517	      1.02061035	      0.92045150	      0.40770872	     30.81982654	     -4.89810863	    -12.16027335	     15.55745173	     15.55745173	      3.35513415	      4.69944420	     10.84983684	     -0.77918834	     -2.62645945	    -11.46945519	     12.74785076	     12.74785076	     18.60526513	     -2.41655213	     -7.88560077	    -12.28946533	      0.95333648	      4.95694057	    -11.60548970	    -14.79607312	     -7.67003832	     27.77248256	     46.96963902	      0.00000000	      0.00000000	     32.97207381	    -21.43936592	      2.42652592	     75.46308438	     47.16028845	      0.00000000	      0.00000000
     28.10828571	     -3.85155467	     -2.40119433	     -2.67470560	      1.02285043	      0.91840363	      0.40904265	     30.27216628	     -4.87684834	    -12.59413167	     15.37115141	     15.37115141	      2.91928418	      4.72526199	      9.72791804	     -1.37910191	     -2.68679292	    -11.95246610	     12.91078938	     12.91078938	     19.58554731	     -0.97880133	     -7.37788929	    -12.01632178	      0.78306859	      3.92529294	    -12.15077983	    -14.78961539	     -7.49104644	     26.57163672	     46.96746630	      0.00000000	      0.00000000	     31.72383096	    -22.51686352	      1.12485837	     80.14251427	     47.36796419	      0.00000000	      0.00000000
     28.11992857	     -3.91515192	     -2.28210745	     -2.39758392	      1.02516053	      0.91648858	      0.41043591	     29.77310988	     -4.85976721	    -12.82924859	     15.48933692	     15.48933692	      2.61293598	      4.62957861	      9.25245642	     -2.08022077	     -2.69030267	    -11.92311598	     12.82051751	     12.82051751	     20.07047882	     -0.44128836	     -7.30071153	    -11.73392240	      0.66289669	      4.28996498	    -13.78739962	    -14.64704817	     -7.35337061	     25.89928301	     46.96178048	      0.00000000	      0.00000000	     32.12055492	    -21.95982325	      0.84827501	     82.24707938	     47.43754215	      0.00000000	      0.00000000
     28.13157143	     -4.02571828	     -2.24580083	     -2.06044275	      1.02747433	      0.91464961	      0.41199782	     29.37615935	     -4.80347230	    -12.99924800	     15.86199929	     15.86199929	      2.20343120	      4.34172029	      8.58137745	     -2.64621101	     -2.84047067	    -11.87857020	     12.88190666	     12.88190666	     20.54461171	      0.11138715	     -7.22837717	    -11.40886189	      0.65106779	      4.38546556	    -15.27694677	    -14.43644671	     -7.31094110	     25.60674844	     46.94994549	      0.00000000	      0.00000000	     32.25757670	    -21.74871287	      0.61036860	     84.24276145	     47.49815660	      0.00000000	      0.00000000
     28.14321429	     -4.09214255	     -2.20073385	     -1.69156101	      1.02988862	      0.91304315	      0.41377384	     28.78202754	     -4.68429632	    -12.84828934	     15.92864626	     15.92864626	      0.47683598	      3.48915555	      4.44618569	     -3.00557219	     -3.18887948	    -12.52976112	     13.54240911	     13.54240911	     21.68417688	      1.89382056	     -6.10756310	    -11.28047046	      0.57113828	      3.60641491	    -16.61401125	    -14.44464396	     -7.21026465	     27.06294115	     46.83013276	      0.00000000	      0.00000000	     30.86142625	    -22.34383945	     -0.64666468	     88.78671870	     47.69736156	      0.00000000	      0.00000000
     28.15485714	     -4.19233453	     -2.25716618	     -1.33878655	      1.03226906	      0.91172362	      0.41573220	     28.34067336	     -4.48120577	    -12.56738835	     16.28091335	     16.28091335	     -0.83200044	      2.44723329	      1.16255231	     -3.38870916	     -3.57968138	    -12.66196344	     14.03099421	     14.03099421	     22.48136357	      2.83288688	     -5.17870504	    -11.02756872	      0.59721764	      3.42363499	    -17.86077136	    -14.41177704	     -6.52495075	     27.57907931	     46.70563577	      0.00000000	      0.00000000	     30.32067894	    -22.09713866	     -1.42716630	     91.26502974	     47.84190725	      0.00000000	      0.00000000
     28.16650000	     -4.34520515	     -2.31744680	     -0.99096309	      1.03444202	      0.91081141	      0.41778599	     28.19951728	     -4.36319864	    -12.30429541	     17.14257406	     17.14257406	     -1.09019189	      1.65463202	      0.50243339	     -3.71392698	     -3.93285690	    -12.48471408	     14.39689984	     14.39689984	     22.64227922	      3.08644383	     -5.09958189	    -10.77702003	      0.61291114	      3.65869076	    -18.96102513	    -14.12792822	     -6.33988905	     27.47949980	     46.67632855	      0.00000000	      0.00000000	     30.16366102	    -21.55373260	     -1.57894869	     92.97318433	     47.89570044	      0.00000000	      0.00000000
     28.17814286	     -4.43845051	     -2.52741234	     -0.65662529	      1.03655428	      0.91036225	      0.42011251	     27.94322415	     -4.01663320	    -11.83064934	     17.85068060	     17.85068060	     -1.63161617	      0.29511318	     -1.10985914	     -3.96855742	     -4.56408848	    -12.62917258	     15.05382349	     15.05382349	     23.01261061	      3.83922796	     -4.73482602	    -10.69419648	      0.79934447	      3.21182260	    -19.70698123	    -14.10851228	     -6.03485923	     28.45856627	     46.57936740	      0.00000000	      0.00000000	     28.98658962	    -21.60941400	     -2.57856069	     95.64583737	     48.03839940	      0.00000000	      0.00000000
     28.18978571	     -4.60080798	     -2.71535356	     -0.34285191	      1.03848402	      0.91027180	      0.42254763	     27.91377688	     -3.76102719	    -11.50255509	     18.85365419	     18.85365419	     -1.48763675	     -0.66612977	     -1.52384118	     -4.11932739	     -5.12648429	    -12.43007761	     15.66167243	     15.66167243	     22.98142976	      3.95385956	     -4.70619705	    -10.54392815	      0.93564280	      3.41800270	    -20.31904670	    -13.83886271	     -5.83018071	     28.46810522	     46.55050380	      0.00000000	      0.00000000	     28.44638094	    -21.03642585	     -2.82252011	     97.06008958	     48.08917686	      0.00000000	      0.00000000
     28.20142857	     -4.63992750	     -2.99946411	     -0.07157141	      1.04042619	      0.91079757	      0.42507242	     27.69541172	     -3.41171371	    -11.32554103	     19.76027881	     19.76027881	     -1.09110473	     -1.41324073	     -1.77877505	     -4.37616381	     -5.79500191	    -12.22849518	     16.30897460	     16.30897460	     22.79075932	      3.98045060	     -4.73268746	    -10.51542342	      1.22474604	      3.55924144	    -20.60386702	    -13.68717619	     -5.75637555	     28.53226701	     46.53635286	      0.00000000	      0.00000000	     27.74842256	    -20.64896650	     -2.95175565	     97.90242020	     48.11452330	      0.00000000	      0.00000000
     28.21307143	     -4.85630895	     -3.38778798	      0.18950678	      1.04213042	      0.91138017	      0.42808238	     27.64215452	     -2.80111391	    -10.70539475	     20.54671296	     20.54671296	     -0.51646320	     -2.92514251	     -1.30426154	     -4.13973476	     -6.79293806	    -12.52446293	     17.51506699	     17.51506699	     22.63297499	      4.70584487	     -5.21190772	    -10.45763851	      1.45536295	      2.78631217	    -20.38613755	    -13.68168629	     -5.27576230	     29.59915604	     46.43784432	      0.00000000	      0.00000000	     25.66351463	    -20.61609700	     -4.71628852	    100.92836067	     48.30291065	      0.00000000	      0.00000000
     28.22471429	     -4.85618787	     -3.68915010	      0.40108295	      1.04403139	      0.91262409	      0.43098981	     27.24816146	     -2.40095566	    -10.72738080	     21.18726478	     21.18726478	      0.15799597	     -3.27779591	     -1.50911121	     -4.30716653	     -7.51667273	    -12.25129519	     18.35002094	     18.35002094	     22.19319152	      4.49985813	     -5.26441722	    -10.52976135	      1.67265530	      3.02505073	    -20.23118501	    -13.43922564	     -5.15672392	     29.68388267	     46.42516319	      0.00000000	      0.00000000	     24.76010545	    -20.10603197	     -4.61588441	    101.13146454	     48.29793496	      0.00000000	      0.00000000
     28.23635714	     -5.17975156	     -4.16050111	      0.64058747	      1.04543069	      0.91345600	      0.43412102	     27.27672117	     -1.78042004	    -10.61298956	     21.93575837	     21.93575837	      1.62566091	     -3.87357510	      0.93340488	     -3.60301707	     -8.61362216	    -12.09330355	     20.02644836	     20.02644836	     21.15089119	      4.21167443	     -7.40394453	    -10.36684022	      2.00365660	      2.11076059	    -19.40387641	    -13.93172834	     -2.52191203	     30.44471645	     46.17990249	      0.00000000	      0.00000000	     22.39925740	    -19.93011933	     -6.69361080	    103.61932781	     48.53058455	      0.00000000	      0.00000000
     28.24800000	     -5.25063280	     -4.51334140	      0.83196802	      1.04715495	      0.91485300	      0.43726128	     26.79133547	     -1.28108425	    -10.79366948	     22.22635312	     22.22635312	      2.31798183	     -4.08625486	      0.80384750	     -3.24062362	     -9.51151846	    -11.77027506	     21.63655781	     21.63655781	     20.48533345	      3.81962925	     -7.75235694	    -10.39475396	      2.22889856	      2.34702909	    -18.93798298	    -13.76614497	     -2.43142830	     30.80140391	     46.16078447	      0.00000000	      0.00000000	     21.24925930	    -19.41234435	     -6.55201088	    103.69763215	     48.52008858	      0.00000000	      0.00000000
     28.25964286	     -5.50768768	     -4.94077824	      1.03730861	      1.04862823	      0.91589558	      0.44050864	     26.47604926	     -0.69249465	    -11.00847201	     22.44163807	     22.44163807	      3.33342898	     -4.19618307	      1.77184593	     -2.34880512	    -10.59831200	    -11.47977400	     23.70451325	     23.70451325	     18.91660435	      3.18961970	    -10.37368149	    -10.26920576	      2.53096121	      1.71560377	    -18.20551043	    -13.90048310	     -1.86100733	     32.50414469	     46.04688001	      0.00000000	      0.00000000	     19.04384730	    -19.20843569	     -7.89122379	    104.92542232	     48.63728517	      0.00000000	      0.00000000
     28.27128571	     -5.68910542	     -5.27846315	      1.22538890	      1.05011593	      0.91713648	      0.44368322	     25.90875771	     -0.21803230	    -11.50802726	     22.32780695	     22.32780695	      3.98540846	     -3.90957536	      1.78321961	     -1.35172535	    -11.51654780	    -10.82060681	     26.10039827	     26.10039827	     17.72163255	      2.14453452	    -11.12596424	    -10.18391077	      2.72010520	      1.88692162	    -17.41090055	    -13.77408803	     -1.63487454	     33.08202537	     46.01257937	      0.00000000	      0.00000000	     17.67990844	    -18.67466136	     -7.77124715	    104.61080435	     48.61957154	      0.00000000	      0.00000000
